<svg width="30" height="28" viewBox="0 0 30 28" fill="none" xmlns="http://www.w3.org/2000/svg">
<path d="M10.625 0.25C9.2875 0.25 8.1225 1.01 7.3825 2.0475C6.6425 3.085 6.25 4.425 6.25 5.875C6.25 7.325 6.6425 8.66625 7.3825 9.70375C8.1225 10.7413 9.2875 11.5 10.625 11.5C11.9625 11.5 13.1275 10.74 13.8675 9.7025C14.6075 8.665 15 7.325 15 5.875C15 4.425 14.6075 3.08375 13.8675 2.04625C13.1275 1.00875 11.9625 0.25 10.625 0.25ZM15 5.875C15 7.325 15.3925 8.66625 16.1325 9.70375C16.8725 10.7413 18.0387 11.5 19.375 11.5C20.7125 11.5 21.8775 10.74 22.6175 9.7025C23.3575 8.665 23.75 7.325 23.75 5.875C23.75 4.425 23.3575 3.08375 22.6175 2.04625C21.8775 1.00875 20.7125 0.25 19.375 0.25C18.0375 0.25 16.8725 1.01 16.1325 2.0475C15.3925 3.085 15 4.425 15 5.875ZM10.625 2.75C11.015 2.75 11.445 2.945 11.8375 3.4925C12.225 4.03875 12.5 4.90875 12.5 5.875C12.5 6.84125 12.225 7.7125 11.8375 8.2575C11.445 8.805 11.015 9 10.625 9C10.235 9 9.805 8.805 9.4125 8.2575C9.025 7.71125 8.75 6.84125 8.75 5.875C8.75 4.90875 9.025 4.0375 9.4125 3.4925C9.805 2.945 10.235 2.75 10.625 2.75ZM19.375 2.75C19.765 2.75 20.195 2.945 20.5875 3.4925C20.975 4.03875 21.25 4.90875 21.25 5.875C21.25 6.84125 20.975 7.7125 20.5875 8.2575C20.195 8.805 19.765 9 19.375 9C18.985 9 18.555 8.805 18.1625 8.2575C17.775 7.71125 17.5 6.84125 17.5 5.875C17.5 4.90875 17.775 4.0375 18.1625 3.4925C18.555 2.945 18.985 2.75 19.375 2.75ZM4.375 9C3.0375 9 1.8725 9.76 1.1325 10.7975C0.3925 11.835 0 13.175 0 14.625C0 16.075 0.3925 17.4163 1.1325 18.4538C1.8725 19.4913 3.0375 20.25 4.375 20.25C5.7125 20.25 6.8775 19.49 7.6175 18.4525C8.3575 17.415 8.75 16.075 8.75 14.625C8.75 13.175 8.3575 11.8338 7.6175 10.7963C6.8775 9.75875 5.7125 9 4.375 9ZM25.625 9C24.2875 9 23.1225 9.76 22.3825 10.7975C21.6425 11.835 21.25 13.175 21.25 14.625C21.25 16.075 21.6425 17.4163 22.3825 18.4538C23.1225 19.4913 24.2875 20.25 25.625 20.25C26.9625 20.25 28.1275 19.49 28.8675 18.4525C29.6075 17.415 30 16.075 30 14.625C30 13.175 29.6075 11.8338 28.8675 10.7963C28.1275 9.75875 26.9625 9 25.625 9ZM4.375 11.5C4.765 11.5 5.195 11.695 5.5875 12.2425C5.975 12.7888 6.25 13.6588 6.25 14.625C6.25 15.5913 5.975 16.4625 5.5875 17.0075C5.195 17.555 4.765 17.75 4.375 17.75C3.985 17.75 3.555 17.555 3.1625 17.0075C2.775 16.4625 2.5 15.5913 2.5 14.625C2.5 13.6588 2.775 12.7875 3.1625 12.2425C3.555 11.695 3.985 11.5 4.375 11.5ZM25.625 11.5C26.015 11.5 26.445 11.695 26.8375 12.2425C27.225 12.7888 27.5 13.6588 27.5 14.625C27.5 15.5913 27.225 16.4625 26.8375 17.0075C26.445 17.555 26.015 17.75 25.625 17.75C25.235 17.75 24.805 17.555 24.4125 17.0075C24.025 16.4613 23.75 15.5913 23.75 14.625C23.75 13.6588 24.025 12.7875 24.4125 12.2425C24.805 11.695 25.235 11.5 25.625 11.5ZM15 14C13.3337 14 12.1712 15.0813 11.6 16.0313C11.0325 16.9813 10.6825 17.7713 10.35 18.1013C10.1587 18.2975 8.9525 18.7513 7.695 19.3925C7.06625 19.7138 6.4325 20.1425 5.89875 20.7988C5.36125 21.455 4.99875 22.3613 4.99875 23.3775C4.99875 25.7775 6.97375 27.7525 9.37375 27.7525C10.4562 27.7525 11.5863 27.4025 12.6925 27.09C13.8038 26.77 15 26.5 15 26.5C15 26.5 16.1962 26.77 17.305 27.0875C18.4125 27.4 19.5425 27.75 20.625 27.75C23.025 27.75 25 25.775 25 23.375C25 22.3825 24.6338 21.475 24.1 20.8375C23.5688 20.1963 22.9287 19.8 22.305 19.4688C21.055 18.8063 19.8263 18.2813 19.6488 18.1013C19.3487 17.805 19.0113 16.9888 18.4363 16.0338C17.8625 15.075 16.675 14 15 14ZM15 16.5C15.825 16.5 15.9163 16.7 16.2875 17.32C16.6625 17.9388 16.9425 18.99 17.85 19.8988C18.8813 20.9238 20.1838 21.1488 21.1325 21.6538C21.6075 21.9063 21.97 22.175 22.1875 22.435C22.4037 22.6938 22.5 22.93 22.5 23.3725C22.5 24.4225 21.675 25.2475 20.625 25.2475C20.2625 25.2475 19.095 24.9725 18.0075 24.66C16.92 24.3513 16.02 23.9975 15 23.9975C13.98 23.9975 13.08 24.3513 11.9925 24.66C10.905 24.9725 9.7375 25.2475 9.375 25.2475C8.325 25.2475 7.5 24.4225 7.5 23.3725C7.5 22.8688 7.605 22.61 7.8125 22.355C8.02 22.1013 8.4025 21.85 8.8675 21.6138C9.7975 21.1388 11.0925 20.9513 12.1488 19.895C13.065 18.9738 13.34 17.8888 13.7113 17.2763C14.0763 16.6638 14.1637 16.495 14.9987 16.495L15 16.5Z" fill="#FF0000"/>
</svg>
